<mxfile host="app.diagrams.net" modified="2023-07-11T12:54:44.682Z" agent="Mozilla/5.0 (Windows NT 10.0; Win64; x64) AppleWebKit/537.36 (KHTML, like Gecko) Chrome/114.0.0.0 Safari/537.36" etag="FEtfEboP9dh47ae2HBAN" version="21.6.1" type="onedrive">
  <diagram name="Page-1" id="80d4a630-b321-0f5e-ff81-c5a36ef4752d">
    <mxGraphModel grid="1" page="1" gridSize="10" guides="1" tooltips="1" connect="1" arrows="1" fold="1" pageScale="1" pageWidth="1100" pageHeight="850" background="none" math="0" shadow="0">
      <root>
        <mxCell id="0" />
        <mxCell id="1" parent="0" />
      </root>
    </mxGraphModel>
  </diagram>
</mxfile>
